{"accessors":[{"bufferView":0,"byteOffset":0,"componentType":5126,"count":4,"max":[-0.006708234919896445,0.003999999999999999,0.029106873000000002],"min":[-0.006708234919896446,0.003,0.006476721916053252],"type":"VEC3"},{"bufferView":0,"byteOffset":48,"componentType":5126,"count":17,"max":[-0.003708234919896447,0.003,0.029106873000000002],"min":[-0.006708234919896446,0.0,0.006476721916053252],"type":"VEC3"},{"bufferView":0,"byteOffset":252,"componentType":5126,"count":16,"max":[-0.005708234919896445,0.003999999999999999,0.030106873],"min":[-0.006708234919896445,0.0029999999999999996,0.029106873000000002],"type":"VEC3"},{"bufferView":0,"byteOffset":444,"componentType":5126,"count":106,"max":[0.0225,0.007,0.007192318350701006],"min":[-0.02249631590097215,0.0,-0.03742287999550605],"type":"VEC3"},{"bufferView":0,"byteOffset":1716,"componentType":5126,"count":17,"max":[-0.0037082349198964463,0.006999999999999998,0.029106873000000002],"min":[-0.006708234919896446,0.003999999999999999,0.006476721916053252],"type":"VEC3"},{"bufferView":0,"byteOffset":1920,"componentType":5126,"count":64,"max":[-0.003708234919896447,0.003,0.030106873],"min":[-0.006708234919896445,0.0,0.029106873000000002],"type":"VEC3"},{"bufferView":0,"byteOffset":2688,"componentType":5126,"count":40,"max":[0.0225,0.0,0.029106873000000002],"min":[-0.02249631590097215,0.0,-0.03742287999550605],"type":"VEC3"},{"bufferView":0,"byteOffset":3168,"componentType":5126,"count":32,"max":[0.005708234919896445,0.005999999999999998,0.030106873],"min":[-0.005708234919896445,0.001,0.030106873],"type":"VEC3"},{"bufferView":0,"byteOffset":3552,"componentType":5126,"count":64,"max":[-0.003708234919896446,0.006999999999999998,0.030106873],"min":[-0.006708234919896445,0.003999999999999998,0.029106873000000002],"type":"VEC3"},{"bufferView":0,"byteOffset":4320,"componentType":5126,"count":4,"max":[0.006708234919896446,0.003999999999999999,0.029106873000000002],"min":[0.006708234919896444,0.003,0.006476721916053252],"type":"VEC3"},{"bufferView":0,"byteOffset":4368,"componentType":5126,"count":16,"max":[0.006708234919896446,0.006999999999999998,0.029106873000000002],"min":[0.0037082349198964463,0.003999999999999997,0.006476721916053252],"type":"VEC3"},{"bufferView":0,"byteOffset":4560,"componentType":5126,"count":16,"max":[0.006708234919896445,0.003,0.029106873000000002],"min":[0.003708234919896445,0.0,0.006476721916053252],"type":"VEC3"},{"bufferView":0,"byteOffset":4752,"componentType":5126,"count":40,"max":[0.0225,0.007,0.029106873000000002],"min":[-0.02249631590097215,0.006999999999999998,-0.03742287999550605],"type":"VEC3"},{"bufferView":0,"byteOffset":5232,"componentType":5126,"count":16,"max":[0.0037082349198964454,0.001,0.030106873],"min":[-0.003708234919896447,0.0,0.029106873000000002],"type":"VEC3"},{"bufferView":0,"byteOffset":5424,"componentType":5126,"count":16,"max":[0.0037082349198964463,0.006999999999999998,0.030106873],"min":[-0.0037082349198964463,0.005999999999999998,0.029106873000000002],"type":"VEC3"},{"bufferView":0,"byteOffset":5616,"componentType":5126,"count":64,"max":[0.006708234919896445,0.003,0.030106873],"min":[0.003708234919896445,0.0,0.029106873000000002],"type":"VEC3"},{"bufferView":0,"byteOffset":6384,"componentType":5126,"count":64,"max":[0.006708234919896445,0.006999999999999998,0.030106873],"min":[0.003708234919896446,0.003999999999999997,0.029106873000000002],"type":"VEC3"},{"bufferView":0,"byteOffset":7152,"componentType":5126,"count":16,"max":[0.006708234919896445,0.003999999999999998,0.030106873],"min":[0.005708234919896445,0.0029999999999999996,0.029106873000000002],"type":"VEC3"},{"bufferView":1,"byteOffset":0,"componentType":5126,"count":4,"type":"VEC3"},{"bufferView":1,"byteOffset":48,"componentType":5126,"count":17,"type":"VEC3"},{"bufferView":1,"byteOffset":252,"componentType":5126,"count":16,"type":"VEC3"},{"bufferView":1,"byteOffset":444,"componentType":5126,"count":106,"type":"VEC3"},{"bufferView":1,"byteOffset":1716,"componentType":5126,"count":17,"type":"VEC3"},{"bufferView":1,"byteOffset":1920,"componentType":5126,"count":64,"type":"VEC3"},{"bufferView":1,"byteOffset":2688,"componentType":5126,"count":40,"type":"VEC3"},{"bufferView":1,"byteOffset":3168,"componentType":5126,"count":32,"type":"VEC3"},{"bufferView":1,"byteOffset":3552,"componentType":5126,"count":64,"type":"VEC3"},{"bufferView":1,"byteOffset":4320,"componentType":5126,"count":4,"type":"VEC3"},{"bufferView":1,"byteOffset":4368,"componentType":5126,"count":16,"type":"VEC3"},{"bufferView":1,"byteOffset":4560,"componentType":5126,"count":16,"type":"VEC3"},{"bufferView":1,"byteOffset":4752,"componentType":5126,"count":40,"type":"VEC3"},{"bufferView":1,"byteOffset":5232,"componentType":5126,"count":16,"type":"VEC3"},{"bufferView":1,"byteOffset":5424,"componentType":5126,"count":16,"type":"VEC3"},{"bufferView":1,"byteOffset":5616,"componentType":5126,"count":64,"type":"VEC3"},{"bufferView":1,"byteOffset":6384,"componentType":5126,"count":64,"type":"VEC3"},{"bufferView":1,"byteOffset":7152,"componentType":5126,"count":16,"type":"VEC3"},{"bufferView":2,"byteOffset":0,"componentType":5123,"count":6,"type":"SCALAR"},{"bufferView":2,"byteOffset":12,"componentType":5123,"count":45,"type":"SCALAR"},{"bufferView":2,"byteOffset":104,"componentType":5123,"count":42,"type":"SCALAR"},{"bufferView":2,"byteOffset":188,"componentType":5123,"count":312,"type":"SCALAR"},{"bufferView":2,"byteOffset":812,"componentType":5123,"count":45,"type":"SCALAR"},{"bufferView":2,"byteOffset":904,"componentType":5123,"count":294,"type":"SCALAR"},{"bufferView":2,"byteOffset":1492,"componentType":5123,"count":114,"type":"SCALAR"},{"bufferView":2,"byteOffset":1720,"componentType":5123,"count":90,"type":"SCALAR"},{"bufferView":2,"byteOffset":1900,"componentType":5123,"count":294,"type":"SCALAR"},{"bufferView":2,"byteOffset":2488,"componentType":5123,"count":6,"type":"SCALAR"},{"bufferView":2,"byteOffset":2500,"componentType":5123,"count":42,"type":"SCALAR"},{"bufferView":2,"byteOffset":2584,"componentType":5123,"count":42,"type":"SCALAR"},{"bufferView":2,"byteOffset":2668,"componentType":5123,"count":114,"type":"SCALAR"},{"bufferView":2,"byteOffset":2896,"componentType":5123,"count":42,"type":"SCALAR"},{"bufferView":2,"byteOffset":2980,"componentType":5123,"count":42,"type":"SCALAR"},{"bufferView":2,"byteOffset":3064,"componentType":5123,"count":294,"type":"SCALAR"},{"bufferView":2,"byteOffset":3652,"componentType":5123,"count":294,"type":"SCALAR"},{"bufferView":2,"byteOffset":4240,"componentType":5123,"count":42,"type":"SCALAR"}],"asset":{"generator":"Open CASCADE Technology 7.8 [dev.opencascade.org]","version":"2.0"},"bufferViews":[{"buffer":0,"byteLength":7344,"byteOffset":0,"byteStride":12,"target":34962},{"buffer":0,"byteLength":7344,"byteOffset":7344,"byteStride":12,"target":34962},{"buffer":0,"byteLength":4324,"byteOffset":14688,"target":34963}],"buffers":[{"byteLength":19012,"uri":"pingpong-Body.bin"}],"materials":[{"name":"mat_0","pbrMetallicRoughness":{"baseColorFactor":[1.0,1.0,1.0,1.0]},"doubleSided":true}],"meshes":[{"name":"Body","primitives":[{"attributes":{"NORMAL":18,"POSITION":0},"indices":36,"material":0,"mode":4},{"attributes":{"NORMAL":19,"POSITION":1},"indices":37,"material":0,"mode":4},{"attributes":{"NORMAL":20,"POSITION":2},"indices":38,"material":0,"mode":4},{"attributes":{"NORMAL":21,"POSITION":3},"indices":39,"material":0,"mode":4},{"attributes":{"NORMAL":22,"POSITION":4},"indices":40,"material":0,"mode":4},{"attributes":{"NORMAL":23,"POSITION":5},"indices":41,"material":0,"mode":4},{"attributes":{"NORMAL":24,"POSITION":6},"indices":42,"material":0,"mode":4},{"attributes":{"NORMAL":25,"POSITION":7},"indices":43,"material":0,"mode":4},{"attributes":{"NORMAL":26,"POSITION":8},"indices":44,"material":0,"mode":4},{"attributes":{"NORMAL":27,"POSITION":9},"indices":45,"material":0,"mode":4},{"attributes":{"NORMAL":28,"POSITION":10},"indices":46,"material":0,"mode":4},{"attributes":{"NORMAL":29,"POSITION":11},"indices":47,"material":0,"mode":4},{"attributes":{"NORMAL":30,"POSITION":12},"indices":48,"material":0,"mode":4},{"attributes":{"NORMAL":31,"POSITION":13},"indices":49,"material":0,"mode":4},{"attributes":{"NORMAL":32,"POSITION":14},"indices":50,"material":0,"mode":4},{"attributes":{"NORMAL":33,"POSITION":15},"indices":51,"material":0,"mode":4},{"attributes":{"NORMAL":34,"POSITION":16},"indices":52,"material":0,"mode":4},{"attributes":{"NORMAL":35,"POSITION":17},"indices":53,"material":0,"mode":4}]}],"nodes":[{"mesh":0,"name":"Body"}],"scene":0,"scenes":[{"nodes":[0]}]}