{"accessors":[{"bufferView":0,"byteOffset":0,"componentType":5126,"count":4,"max":[0.012503542506277597,0.007,0.1],"min":[-0.0125,-0.007,0.1],"type":"VEC3"},{"bufferView":0,"byteOffset":48,"componentType":5126,"count":4,"max":[0.012503542506277597,0.007,0.1],"min":[0.012503542506277597,-0.007,0.04388564299939928],"type":"VEC3"},{"bufferView":0,"byteOffset":96,"componentType":5126,"count":15,"max":[0.03132600781906711,0.007,0.04388564299939928],"min":[0.012503542506277597,-0.007,-0.006855438707179551],"type":"VEC3"},{"bufferView":0,"byteOffset":276,"componentType":5126,"count":60,"max":[0.0749875297195029,0.007,-0.006855438707179551],"min":[-0.07498752973080118,-0.007,-0.1496725970169569],"type":"VEC3"},{"bufferView":0,"byteOffset":996,"componentType":5126,"count":19,"max":[-0.0125,0.007,0.04388564299939928],"min":[-0.03132600784431398,-0.007,-0.006855438716373129],"type":"VEC3"},{"bufferView":0,"byteOffset":1224,"componentType":5126,"count":46,"max":[0.0749875297195029,-0.007,0.1],"min":[-0.07498752973080118,-0.007,-0.1496725970169569],"type":"VEC3"},{"bufferView":0,"byteOffset":1776,"componentType":5126,"count":46,"max":[0.0749875297195029,0.007,0.1],"min":[-0.07498752973080118,0.007,-0.1496725970169569],"type":"VEC3"},{"bufferView":0,"byteOffset":2328,"componentType":5126,"count":4,"max":[-0.0125,0.007,0.1],"min":[-0.0125,-0.007,0.04388564299939928],"type":"VEC3"},{"bufferView":1,"byteOffset":0,"componentType":5126,"count":4,"type":"VEC3"},{"bufferView":1,"byteOffset":48,"componentType":5126,"count":4,"type":"VEC3"},{"bufferView":1,"byteOffset":96,"componentType":5126,"count":15,"type":"VEC3"},{"bufferView":1,"byteOffset":276,"componentType":5126,"count":60,"type":"VEC3"},{"bufferView":1,"byteOffset":996,"componentType":5126,"count":19,"type":"VEC3"},{"bufferView":1,"byteOffset":1224,"componentType":5126,"count":46,"type":"VEC3"},{"bufferView":1,"byteOffset":1776,"componentType":5126,"count":46,"type":"VEC3"},{"bufferView":1,"byteOffset":2328,"componentType":5126,"count":4,"type":"VEC3"},{"bufferView":2,"byteOffset":0,"componentType":5123,"count":6,"type":"SCALAR"},{"bufferView":2,"byteOffset":12,"componentType":5123,"count":6,"type":"SCALAR"},{"bufferView":2,"byteOffset":24,"componentType":5123,"count":42,"type":"SCALAR"},{"bufferView":2,"byteOffset":108,"componentType":5123,"count":174,"type":"SCALAR"},{"bufferView":2,"byteOffset":456,"componentType":5123,"count":54,"type":"SCALAR"},{"bufferView":2,"byteOffset":564,"componentType":5123,"count":132,"type":"SCALAR"},{"bufferView":2,"byteOffset":828,"componentType":5123,"count":132,"type":"SCALAR"},{"bufferView":2,"byteOffset":1092,"componentType":5123,"count":6,"type":"SCALAR"}],"asset":{"generator":"Open CASCADE Technology 7.8 [dev.opencascade.org]","version":"2.0"},"bufferViews":[{"buffer":0,"byteLength":2376,"byteOffset":0,"byteStride":12,"target":34962},{"buffer":0,"byteLength":2376,"byteOffset":2376,"byteStride":12,"target":34962},{"buffer":0,"byteLength":1104,"byteOffset":4752,"target":34963}],"buffers":[{"byteLength":5856,"uri":"pingpong-Body002.bin"}],"materials":[{"name":"mat_0","pbrMetallicRoughness":{"baseColorFactor":[1.0,1.0,1.0,1.0]},"doubleSided":true}],"meshes":[{"name":"Body002","primitives":[{"attributes":{"NORMAL":8,"POSITION":0},"indices":16,"material":0,"mode":4},{"attributes":{"NORMAL":9,"POSITION":1},"indices":17,"material":0,"mode":4},{"attributes":{"NORMAL":10,"POSITION":2},"indices":18,"material":0,"mode":4},{"attributes":{"NORMAL":11,"POSITION":3},"indices":19,"material":0,"mode":4},{"attributes":{"NORMAL":12,"POSITION":4},"indices":20,"material":0,"mode":4},{"attributes":{"NORMAL":13,"POSITION":5},"indices":21,"material":0,"mode":4},{"attributes":{"NORMAL":14,"POSITION":6},"indices":22,"material":0,"mode":4},{"attributes":{"NORMAL":15,"POSITION":7},"indices":23,"material":0,"mode":4}]}],"nodes":[{"mesh":0,"name":"Body002"}],"scene":0,"scenes":[{"nodes":[0]}]}